<svg viewBox="0 0 64 64" xmlns="http://www.w3.org/2000/svg"><path d="M32 60a28 28 0 0 1 0-56c15.888 0 25 8.748 25 24v1a18.064 18.064 0 0 1-2.313 9.706A9.9 9.9 0 0 1 46 43.754c-3.987 0-8.643-2.3-8.643-8.771v-.1l.6-11.944q-.74-.146-1.532-.263a29.192 29.192 0 0 0-4.1-.337 8.536 8.536 0 0 0-6.725 2.7 10.591 10.591 0 0 0-2.6 7.555 9.459 9.459 0 0 0 1.735 6.122 5.191 5.191 0 0 0 4.338 1.8 5.952 5.952 0 0 0 3.373-.9 2 2 0 1 1 2.2 3.342 9.818 9.818 0 0 1-5.572 1.554 9.142 9.142 0 0 1-7.425-3.26C19.891 39.127 19 36.212 19 32.594a14.394 14.394 0 0 1 3.67-10.271 12.6 12.6 0 0 1 9.66-3.984 33.24 33.24 0 0 1 4.677.379 32.794 32.794 0 0 1 3.547.711l1.57.414-.767 15.188c.022 4.107 2.915 4.723 4.643 4.723a5.988 5.988 0 0 0 5.152-2.921A14.063 14.063 0 0 0 53 29v-1c0-12.9-7.458-20-21-20a24 24 0 1 0 16.615 41.318 2 2 0 1 1 2.77 2.887A27.866 27.866 0 0 1 32 60Z" fill="#7b00ff" class="fill-000000"></path></svg>